<?xml version="1.0" encoding="UTF-8"?>
<svg id="Calque_1" xmlns="http://www.w3.org/2000/svg" version="1.1" viewBox="0 0 1920 1080">
  <!-- Generator: Adobe Illustrator 29.0.1, SVG Export Plug-In . SVG Version: 2.1.0 Build 192)  -->
  <defs>
    <style>
      .st0 {
        fill: #999;
        font-family: CocogooseProTrial-Semilight, CocogooseProTrial;
        font-size: 17.4px;
        font-weight: 300;
        letter-spacing: .1em;
      }

      .st1 {
        font-family: CocogooseProTrial-Bold, CocogooseProTrial;
        font-size: 51.6px;
        font-weight: 700;
      }

      .st1, .st2 {
        fill: #1675f3;
      }
    </style>
  </defs>
  <path class="st2" d="M1028.4,480.7c3.6-16.3-.3-33.5-9.6-47.2-9.2-13.8-23.2-24.6-39.4-28.6-16.7-4-34.4-.8-49.3,7.4s-26.9,20.8-33.5,36.1-8,34.6-3.7,51.8,13.4,32.6,26.2,44.2c14.1,12.9,33.4,21.8,52.8,20.4,9-.7,17.8-3.5,25.3-8.5s13.4-11.4,17.2-19.2c4-8.4,5.3-17.6,3.4-26.7-1.8-8.8-6.7-16.9-12.9-23.3-14-14.6-34.7-19.4-54.4-18.4s-10.4.9-15.5,1.7-5.1,4.5-4.2,7.4,4.1,4.7,7.4,4.2,2.4-.3,3.5-.5c-.2,0-1.4.2-.3,0s.4,0,.7,0c.7,0,1.3-.2,2-.2,2.4-.2,4.7-.4,7.1-.5,4.7-.2,9.5,0,14.1.5s.6.1.9.1c-.1,0-1.4-.2-.3,0s1.2.2,1.7.3c1.2.2,2.3.4,3.4.7,2.3.5,4.5,1.1,6.8,1.9s2.1.7,3.1,1.1,1.1.4.3.1.1,0,.3.1c.6.2,1.1.5,1.7.8,1.8.9,3.5,1.8,5.2,2.9s1.6,1,2.3,1.6,1.5,1.2.7.5,0,0,.1.1.5.4.7.6c1.5,1.3,3,2.6,4.4,4.1s1.3,1.4,1.9,2.1.6.8.9,1.1-.4-.5-.4-.5c.2.3.4.6.7.9,1.2,1.6,2.2,3.2,3.1,5s.8,1.6,1.2,2.5.2.4.3.7c.3.6-.3-.6-.3-.6.2.6.4,1.1.6,1.7.6,1.8,1.2,3.7,1.5,5.6s.1.8.2,1.3c.1.8-.1-1.3,0-.5s0,.5,0,.7c0,1,.2,2.1.2,3.1s0,1.8,0,2.7,0,.8-.1,1.2c0,1,0-.5,0-.6,0,.3,0,.6-.1.9-.3,1.8-.8,3.6-1.4,5.4s-.3.9-.5,1.3-.2.4-.3.6c-.2.6.3-.7.3-.6-.5.9-.8,1.8-1.3,2.7-.9,1.7-1.9,3.2-3,4.8s-.3.4-.4.6c-.4.6.8-1,.3-.4s-.5.6-.8,1c-.6.8-1.3,1.5-2,2.2-1.3,1.4-2.7,2.7-4.2,3.9s-.4.3-.6.4c-.6.5,1-.7.4-.3s-.7.5-1,.7c-.8.6-1.7,1.1-2.5,1.7-1.6,1-3.3,1.9-5.1,2.7s-.4.2-.7.3c-.6.3.7-.3.6-.3-.4.2-.9.4-1.3.5-.9.4-1.9.7-2.9,1-1.8.6-3.7,1-5.6,1.3s-.5,0-.8.1c-.7.1.6,0,.6,0-.5,0-1.1.1-1.6.2-1.1.1-2.3.2-3.4.2-2.2,0-4.3,0-6.5-.2s-.9-.1-1.4-.2c-1.1-.1.3,0,.4,0-.3,0-.5,0-.8-.1-1.1-.2-2.3-.4-3.4-.6-2.1-.5-4.1-1-6.1-1.7s-2.1-.7-3.1-1.1-1-.4-1.5-.6-.8-.5.3.1c-.2-.1-.5-.2-.8-.3-4-1.8-7.9-4-11.5-6.4s-1.8-1.3-2.7-1.9-.4-.4-.7-.5c.1,0,1.1.8.2.2s-.9-.7-1.3-1c-1.6-1.3-3.2-2.7-4.7-4.2s-2.8-2.8-4.1-4.3-1.3-1.5-1.9-2.3-.6-.7-.8-1-.3-.4-.5-.6c-.6-.7-.2-.3.1.2-2.2-3.3-4.6-6.4-6.5-9.9s-1.9-3.5-2.7-5.3-.8-1.8-1.2-2.7.5,1.3,0-.1-.4-1-.6-1.6c-1.4-3.7-2.6-7.5-3.5-11.3s-.8-3.9-1.1-5.8-.1-1-.2-1.5.2,1.4,0,.7,0-.5,0-.7c-.1-1-.2-2.1-.3-3.1-.3-3.9-.3-7.8,0-11.8s.2-1.8.3-2.7,0-.5,0-.7c0-.7-.1.7,0,.7,0-.6.2-1.2.3-1.8.3-1.9.7-3.9,1.2-5.8s1-3.8,1.7-5.7.6-1.7.9-2.5.3-.8.5-1.2c-.5,1.8,0,0,.2-.5,1.5-3.4,3.4-6.7,5.5-9.8s1-1.5,1.5-2.2.6-.7.9-1.1c-.9,1.5,0,0,.3-.3,1.2-1.5,2.5-2.9,3.8-4.3s2.7-2.7,4.1-4,1.3-1.2,2-1.8.7-.6,1.1-.9.4-.3.6-.4c.8-.7-.8.6-.2.2,3.1-2.3,6.2-4.4,9.6-6.2s3.4-1.7,5.1-2.5-.9.4,0,0,.9-.4,1.3-.5c.9-.4,1.9-.7,2.8-1,3.6-1.2,7.2-2.1,10.9-2.7s.3,0,.5,0c1-.2-.5,0-.5,0,.5,0,.9-.1,1.4-.2,1-.1,2-.2,3-.2,1.8-.1,3.6-.1,5.5,0s1.9,0,2.8.2.9,0,1.4.1.5,0,.7,0c.8,0-.3,0-.5,0,1.8.3,3.7.6,5.5,1.1s3.5,1,5.3,1.6,1.7.7,2.6,1c0,0-1.4-.6-.5-.2s.4.2.6.3c.4.2.8.4,1.2.6,3.3,1.6,6.5,3.5,9.4,5.7s.7.6,1.1.8c0,0-1.2-.9-.4-.3s.4.3.5.4c.7.6,1.4,1.2,2.1,1.8,1.4,1.2,2.7,2.5,4,3.8s2.5,2.7,3.6,4.2.3.4.4.5c0,0-.9-1.2-.3-.4s.6.7.8,1.1c.5.7,1.1,1.5,1.6,2.3,2,3.1,3.8,6.3,5.2,9.7s.3,1-.2-.5c0,.2.2.4.3.6.1.4.3.7.4,1.1.3.9.7,1.8,1,2.7.6,1.7,1,3.5,1.4,5.3s.3,1.7.5,2.5.1.9.2,1.3c.1.7-.1-.8,0-.8,0,.3,0,.7.1,1,.2,1.8.3,3.6.3,5.4s0,3.4-.2,5.1-.1.9-.2,1.4c0,0,.2-1.6,0-.6s0,.5-.1.7c-.1.9-.3,1.8-.5,2.7-.7,3.1.9,6.6,4.2,7.4s6.7-.9,7.4-4.2h0Z"/>
  <text class="st1" transform="translate(786.9 627.7)"><tspan x="0" y="0">GOOD LEASE</tspan></text>
  <text class="st0" transform="translate(748.1 656.7) rotate(.4)"><tspan x="0" y="0">ÉQUIPEZ VOS ÉVÈNEMENTS EN UN CLIC</tspan></text>
</svg>