<svg width="127" height="147" viewBox="0 0 127 147" fill="none" xmlns="http://www.w3.org/2000/svg">
<path d="M116.646 26.8382C112.088 20.217 106.281 14.3588 99.6078 9.8357C95.1226 6.79306 90.2364 4.34985 85.0583 2.67867C83.7729 2.26087 82.4693 1.89757 81.1474 1.5706C79.151 1.08923 77.1272 0.716841 75.1034 0.46253C71.2745 -0.027926 67.4093 -0.118757 63.5713 0.144636C60.6268 0.344452 57.7004 0.762253 54.8106 1.37078C51.9207 1.97931 48.9853 2.81489 46.1502 3.82305C43.8164 4.65864 41.5191 5.61231 39.2857 6.69313C38.2464 7.19267 37.2163 7.71947 36.2044 8.27351C34.5908 9.15451 33.0045 10.0991 31.4548 11.1072C29.2486 12.5423 27.1155 14.1045 25.0643 15.7847C22.7032 17.7193 20.4697 19.8083 18.373 22.0244C15.8569 24.6947 13.5414 27.5557 11.4902 30.5802C9.54847 33.4412 7.83458 36.4475 6.3851 39.5628C6.14808 40.0714 5.92017 40.58 5.70138 41.0977C4.37041 44.1767 3.28561 47.3284 2.42868 50.5345C1.17975 55.212 0.413971 59.9893 0.131367 64.8031C-0.333561 72.6141 0.441331 80.5068 2.36486 88.1725C4.76243 97.7091 8.93765 106.919 14.5897 115.066C17.9536 119.916 21.8554 124.394 26.2039 128.354C26.5047 128.626 26.8055 128.898 27.1155 129.162C31.8377 133.313 37.1525 136.991 42.841 139.906C45.4391 141.242 48.1193 142.413 50.8542 143.403C55.6129 145.129 60.5539 146.292 65.5678 146.764C68.485 147.036 71.4204 147.082 74.3741 146.855C76.5164 146.691 78.6405 146.4 80.7281 145.983C86.0976 144.902 91.2573 142.94 95.9522 140.052C96.4536 139.743 96.9459 139.425 97.4382 139.098C101.349 136.464 104.968 133.267 107.986 129.598C110 127.146 111.742 124.475 113.118 121.623C113.592 120.633 114.03 119.634 114.422 118.626C115.88 114.857 116.737 110.96 116.956 106.991C117.129 103.803 116.892 100.57 116.218 97.3367C115.917 95.9107 115.534 94.512 115.069 93.1315C113.537 88.5811 111.14 84.3033 108.204 80.4795C107.047 78.9718 105.807 77.5459 104.494 76.1926C102.334 73.9583 99.9999 71.9874 97.5385 70.2345C93.9011 67.6641 89.9629 65.6024 85.8423 63.9948C82.1685 62.5688 78.3488 61.4971 74.447 60.7432C68.0474 59.508 61.429 59.1356 54.9382 59.4444C50.2069 59.6715 45.4938 60.2527 40.8172 61.0066C37.982 61.4607 36.1588 65.121 36.9975 67.7095C37.4715 69.1718 38.4652 70.4343 39.8782 71.0882C41.4462 71.8057 43.0142 71.4606 44.6551 71.2699C48.2743 70.8612 51.9026 70.4706 55.5399 70.3162C59.8428 70.1345 64.1547 70.2435 68.4303 70.734C68.4303 70.734 68.6673 70.7613 68.9773 70.7976C69.506 70.8793 70.0256 70.952 70.5452 71.0428C71.5936 71.2154 72.642 71.4152 73.6812 71.6423C75.7597 72.0964 77.82 72.6504 79.8347 73.3316C80.9013 73.6858 81.9588 74.0764 83.0072 74.5033C85.2407 75.4569 87.4012 76.6013 89.4523 77.9092C90.4551 78.545 91.4397 79.2262 92.3878 79.9437C92.5975 80.1072 92.8071 80.2797 93.0168 80.4523C94.4116 81.6058 95.7426 82.841 96.9915 84.1489C97.1829 84.3487 97.3744 84.5485 97.5567 84.7574C97.894 85.1298 98.2313 85.5022 98.5595 85.8836C98.8877 86.2651 99.1976 86.6375 99.4984 87.0371C99.7993 87.4368 100.082 87.8182 100.355 88.2178C100.629 88.6175 100.902 89.0262 101.167 89.4349C101.431 89.8437 101.686 90.2614 101.932 90.6792C102.179 91.097 102.425 91.5239 102.653 91.9508C102.771 92.1778 102.899 92.4049 103.008 92.6319C103.163 92.9317 103.309 93.2314 103.455 93.5402C103.592 93.8218 103.719 94.0942 103.838 94.3849C103.965 94.6937 104.084 95.0116 104.202 95.3204L104.357 95.7291C104.959 97.4094 105.433 99.1351 105.761 100.888C105.816 101.16 105.852 101.433 105.898 101.705C106.026 102.813 106.099 103.931 106.099 105.048C106.099 105.856 106.071 106.664 106.007 107.473C105.953 108.163 105.862 108.844 105.734 109.525C105.606 110.207 105.442 110.888 105.269 111.551C105.096 112.214 104.895 112.886 104.667 113.549C104.64 113.622 104.613 113.703 104.594 113.776C104.458 114.176 104.312 114.575 104.157 114.966C104.157 114.993 104.139 115.011 104.13 115.039C103.756 115.91 103.336 116.773 102.881 117.609C102.762 117.827 102.644 118.036 102.525 118.254C102.407 118.472 102.279 118.681 102.16 118.89C102.042 119.098 101.905 119.307 101.778 119.516C101.65 119.725 101.513 119.934 101.386 120.134C101.258 120.334 101.121 120.543 100.975 120.742C100.829 120.942 100.702 121.142 100.556 121.342C100.41 121.542 100.264 121.751 100.118 121.95C100.1 121.978 100.082 122.005 100.055 122.032C99.9816 122.132 99.9087 122.223 99.8266 122.314C99.7446 122.404 99.6717 122.504 99.5896 122.604C99.4347 122.795 99.2705 122.986 99.1065 123.176C98.9424 123.367 98.7783 123.549 98.6142 123.74C98.4501 123.93 98.286 124.112 98.1128 124.294C97.9396 124.475 97.7755 124.648 97.6022 124.829C96.2986 126.183 94.9039 127.445 93.427 128.608C93.1809 128.789 92.9256 128.98 92.6704 129.153C91.9137 129.689 91.1389 130.197 90.3549 130.679C88.8689 131.587 87.3283 132.413 85.7421 133.131C85.6327 133.185 85.5232 133.231 85.4138 133.285C84.2561 133.758 83.071 134.175 81.8677 134.539C80.1812 135.047 78.4673 135.438 76.7352 135.719C76.5985 135.738 76.4708 135.765 76.3341 135.783C74.8664 135.956 73.3986 136.056 71.9218 136.092C69.9527 136.137 67.9927 136.065 66.0327 135.874C65.6225 135.837 65.2214 135.783 64.8203 135.738C64.5741 135.701 64.3827 135.665 64.3827 135.665C63.3525 135.501 62.3224 135.302 61.2923 135.084C59.4143 134.675 57.5637 134.166 55.7405 133.567C54.7924 133.258 53.8625 132.922 52.9326 132.568C52.5406 132.413 52.1487 132.259 51.7567 132.105C47.8731 130.433 44.1537 128.372 40.6622 125.992C39.8326 125.429 39.0213 124.848 38.2191 124.257C38.0276 124.112 37.827 123.921 37.6174 123.803C37.7359 123.867 38.5837 124.566 37.8361 123.967C37.4441 123.658 37.0522 123.349 36.6693 123.031C35.2016 121.832 33.7885 120.57 32.4211 119.262C31.0537 117.954 29.8686 116.719 28.6743 115.375C28.0727 114.703 27.4892 114.021 26.9058 113.331C26.6505 113.031 26.4044 112.723 26.1582 112.414C26.0215 112.241 25.8757 112.059 25.7389 111.887C25.2284 111.242 25.593 111.651 25.8665 112.059C23.8154 109.071 21.7004 106.201 19.9228 103.041C19.0385 101.469 18.2089 99.8707 17.4431 98.2358C17.0785 97.4638 16.7229 96.6737 16.3765 95.8926C16.1577 95.3567 15.9389 94.8117 15.7292 94.2668C14.4347 90.9153 13.3682 87.4731 12.5568 83.9763C12.0737 81.9055 11.6817 79.8074 11.3808 77.7094C11.3717 77.5822 11.3535 77.4551 11.3353 77.337C11.2259 76.3924 11.1347 75.4478 11.0617 74.5033C10.7882 70.952 10.7701 67.3735 11.0435 63.8222C11.1074 62.9866 11.1894 62.1601 11.2805 61.3336C11.2987 61.1883 11.317 61.052 11.3353 60.9067C11.6452 58.7178 12.0645 56.5471 12.6024 54.4036C13.04 52.6689 13.5505 50.9522 14.1339 49.2538C14.3983 48.4818 14.6809 47.7098 14.9818 46.9469C15.0456 46.7743 15.1276 46.6108 15.2005 46.4383C15.2735 46.2657 15.3281 46.1022 15.4011 45.9387C15.5378 45.6027 15.6928 45.2848 15.8478 44.9578C16.0027 44.6308 16.1577 44.3038 16.3127 43.986C16.4677 43.6681 16.6318 43.3411 16.7959 43.0232C16.96 42.7053 17.1241 42.3875 17.2973 42.0696C17.4705 41.7517 17.6346 41.4338 17.8169 41.125C17.9992 40.8162 18.1724 40.4983 18.3456 40.1895C18.5188 39.8807 18.7103 39.5719 18.8926 39.2631C19.0749 38.9543 19.2664 38.6454 19.4578 38.3457C19.6493 38.046 19.8407 37.7372 20.0413 37.4375C20.2418 37.1377 20.4332 36.838 20.6338 36.5474C21.0896 35.8753 21.5546 35.2122 22.0377 34.5583C22.5574 33.8589 23.1043 33.1778 23.6604 32.5147C24.2165 31.8517 24.7908 31.1887 25.3743 30.5438C25.748 30.1351 26.1218 29.7264 26.5047 29.3268C27.6989 28.0734 28.9478 26.8654 30.2424 25.7119C30.844 25.167 31.4639 24.6402 32.0838 24.1225C32.5578 23.7319 33.041 23.3414 33.5242 22.9599C36.2682 20.9345 39.1124 19.0726 42.1299 17.465C43.6888 16.6294 45.2841 15.8574 46.9068 15.158C47.2806 15.0036 47.6453 14.8583 48.019 14.713C48.8668 14.386 49.7328 14.0772 50.5989 13.7775C53.8443 12.6876 57.1899 11.8611 60.5721 11.3343C60.6359 11.3252 60.6997 11.3161 60.7635 11.3071C62.0216 11.1436 63.2796 11.0346 64.5377 10.9619C66.1968 10.8711 67.8559 10.8529 69.5151 10.9074C70.372 10.9347 71.229 10.9892 72.0859 11.0618C72.1862 11.0618 72.2956 11.08 72.3959 11.0891C73.0796 11.1526 73.7542 11.2344 74.4288 11.3525C75.1125 11.4705 75.7962 11.5886 76.4799 11.7158C77.1636 11.8429 77.8382 11.9882 78.5128 12.1517C80.9013 12.7421 83.2442 13.5141 85.5142 14.4678C85.6053 14.5041 85.6965 14.5495 85.7876 14.5858C86.1705 14.7584 86.5443 14.931 86.9272 15.1126C90.2364 16.7021 93.3723 18.6366 96.2895 20.8528C96.408 20.9527 96.5357 21.0435 96.6542 21.1434C97.3105 21.6702 97.9487 22.2152 98.5777 22.7692C99.8357 23.8773 101.048 25.0489 102.206 26.266C103.364 27.483 104.467 28.7455 105.515 30.0534C105.515 30.0534 105.579 30.1351 105.652 30.2259C105.889 30.5529 106.135 30.8708 106.372 31.1978C106.864 31.879 107.338 32.5602 107.803 33.2595C109.608 35.9933 111.176 38.8725 112.498 41.8607C112.681 42.2966 112.854 42.7417 113.018 43.1776C113.328 44.0041 113.62 44.8306 113.893 45.6662C114.404 47.2375 114.832 48.8269 115.188 50.4436C115.352 51.1975 115.497 51.9513 115.634 52.7142C115.689 53.0231 115.734 53.3319 115.789 53.6407C116.008 55.4481 116.126 57.2646 116.126 59.0902C116.126 59.2719 116.126 59.4535 116.126 59.6351C116.126 60.0438 116.117 60.4526 116.099 60.8613C116.081 61.27 116.063 61.6787 116.035 62.0874C116.008 62.4961 115.981 62.9049 115.944 63.3136C115.908 63.7223 115.862 64.1219 115.817 64.5215C115.789 64.7304 115.734 65.0665 115.698 65.2663C115.634 65.6205 115.579 65.9657 115.507 66.3199C115.425 66.7195 115.343 67.1101 115.26 67.5097C114.65 70.289 116.099 73.5314 119.08 74.2126C121.842 74.8393 125.152 73.3861 125.808 70.407C129.062 55.6025 125.489 40.026 117.093 27.5012C116.947 27.2832 116.801 27.0652 116.637 26.8291L116.646 26.8382Z" fill="white"/>
</svg>
